<svg width="25" height="24" viewBox="0 0 25 24" fill="none" xmlns="http://www.w3.org/2000/svg">
<rect x="0.608154" width="24" height="24" rx="6" fill="white"/>
<path d="M9.74293 20.7733V17.7156C9.74293 16.9351 10.3803 16.3023 11.1666 16.3023H14.0408C14.4183 16.3023 14.7805 16.4512 15.0474 16.7163C15.3144 16.9813 15.4644 17.3408 15.4644 17.7156V20.7733C15.462 21.0978 15.5902 21.4099 15.8205 21.6402C16.0508 21.8705 16.3642 22 16.6911 22H18.652C19.5678 22.0024 20.4469 21.6428 21.0953 21.0008C21.7437 20.3588 22.1082 19.487 22.1082 18.5778V9.86686C22.1081 9.13246 21.7802 8.43584 21.2128 7.96467L14.5422 2.67587C13.3818 1.74856 11.7193 1.7785 10.5935 2.74698L4.07517 7.96467C3.48089 8.42195 3.12571 9.12064 3.10815 9.86686V18.5689C3.10815 20.4639 4.65554 22 6.56433 22H8.48044C9.15938 22 9.71115 21.4562 9.71607 20.7822L9.74293 20.7733Z" fill="#2F80ED"/>
</svg>
