<svg width="25" height="24" viewBox="0 0 25 24" fill="none" xmlns="http://www.w3.org/2000/svg">
<rect x="0.608154" width="24" height="24" rx="6" fill="white"/>
<path opacity="0.4" fill-rule="evenodd" clip-rule="evenodd" d="M22.1322 9.75286C21.4931 5.81946 18.1521 2.89322 14.1688 2.77803C13.9794 2.77061 13.7948 2.83879 13.6558 2.96757C13.5167 3.09634 13.4345 3.27513 13.4274 3.46453V3.46453V3.5286L13.8759 10.238C13.9053 10.6896 14.2936 11.033 14.7454 11.0069L21.4731 10.5584C21.6627 10.5443 21.8389 10.4553 21.9626 10.311C22.0863 10.1666 22.1473 9.97895 22.1322 9.78947V9.75286Z" stroke="#200E32" stroke-width="1.5" stroke-linecap="round" stroke-linejoin="round"/>
<path d="M9.50976 6.76888C9.93771 6.66988 10.3757 6.88885 10.5532 7.29061C10.5997 7.38511 10.6277 7.48765 10.6356 7.59267C10.7271 8.89245 10.9194 11.7391 11.0292 13.2769C11.048 13.5539 11.1763 13.812 11.3859 13.9941C11.5955 14.1762 11.869 14.2673 12.1459 14.2471V14.2471L17.7935 13.8993C18.0456 13.8842 18.2928 13.9739 18.4765 14.1472C18.6603 14.3205 18.7642 14.5621 18.7638 14.8146V14.8146C18.5349 18.225 16.0847 21.0761 12.7475 21.8151C9.41026 22.5541 5.98543 21.0041 4.33813 18.0092C3.84638 17.1472 3.53497 16.1943 3.4228 15.2082C3.37485 14.9056 3.35645 14.5991 3.36788 14.2929C3.37759 10.6509 5.93539 7.51284 9.5006 6.76888" stroke="#200E32" stroke-width="1.5" stroke-linecap="round" stroke-linejoin="round"/>
</svg>
