<svg width="79" height="78" viewBox="0 0 79 78" fill="none" xmlns="http://www.w3.org/2000/svg">
<path d="M26.3779 9.34751C26.3779 9.34751 14.5577 15.3691 8.66251 24.648C2.76727 33.9269 3.23371 45.864 10.3972 54.7248C17.5607 63.5856 31.2529 62.4218 42.7173 68.0347C54.1817 73.6476 66.8302 72.4916 72.2512 60.5998C77.6722 48.7079 69.4978 44.2634 68.0938 30.5011C66.6898 16.7388 54.2831 -3.41329 26.3779 9.34751Z" fill="#2F80ED"/>
<path opacity="0.7" d="M26.3779 9.34751C26.3779 9.34751 14.5577 15.3691 8.66251 24.648C2.76727 33.9269 3.23371 45.864 10.3972 54.7248C17.5607 63.5856 31.2529 62.4218 42.7173 68.0347C54.1817 73.6476 66.8302 72.4916 72.2512 60.5998C77.6722 48.7079 69.4978 44.2634 68.0938 30.5011C66.6898 16.7388 54.2831 -3.41329 26.3779 9.34751Z" fill="white"/>
<path d="M61.1752 63.2939C61.1752 63.2939 54.5327 51.636 56.0662 48.6626C57.5997 45.6893 61.5153 51.0354 61.5153 51.0354C61.5153 51.0354 58.1098 40.1622 59.9833 35.412C61.8569 30.6618 65.0923 35.412 65.2624 38.7738C65.4324 42.1356 64.5807 47.8686 64.5807 47.8686C64.5807 47.8686 65.9441 36.0126 69.1795 39.5647C72.415 43.1168 65.0923 54.9853 65.0923 54.9853C65.0923 54.9853 70.0313 52.2179 69.8597 55.7762C69.6881 59.3346 63.9005 62.4983 63.9005 62.4983" fill="#2F80ED"/>
<path d="M61.2314 61.1192C61.2314 61.1192 55.085 55.3847 58.0802 52.8154C61.0754 50.246 62.651 55.5828 62.651 55.5828C62.651 55.5828 59.3407 39.1731 64.6993 38.5788C70.0579 37.9844 66.1173 52.8138 66.1173 52.8138C66.1173 52.8138 70.6881 46.488 70.373 51.636C70.0579 56.784 63.2812 61.127 63.2812 61.127" stroke="#263238" stroke-miterlimit="10"/>
<path d="M64.2499 60.0756L60.0972 55.575" stroke="#263238" stroke-miterlimit="10"/>
<path d="M63.3858 60.4219L64.5105 47.2664" stroke="#263238" stroke-miterlimit="10"/>
<path d="M63.2126 59.4688L66.9332 54.536" stroke="#263238" stroke-miterlimit="10"/>
<path d="M68.5946 58.5515H57.1052L58.2549 72.1032H67.4449L68.5946 58.5515Z" fill="#263238"/>
<path d="M24.7336 42.836C23.2398 42.1031 21.6956 41.4775 20.1129 40.964C17.8322 40.262 15.1412 40.9048 15.0819 41.6645C15.0226 42.4242 15.4282 42.0763 15.9602 42.9C16.4921 43.7237 16.2519 45.6487 17.0132 47.4037C17.7744 49.1587 20.0536 50.0354 20.0536 50.0354L24.7336 42.836Z" fill="#2F80ED" stroke="#263238" stroke-linecap="round" stroke-linejoin="round"/>
<path opacity="0.3" d="M23.2126 44.5333C23.2126 44.5333 19.7026 42.3103 17.6559 41.549C15.6092 40.7878 15.4922 41.9 15.4922 41.9C15.8289 42.0236 16.1179 42.2506 16.3177 42.5485C16.5175 42.8464 16.6179 43.1999 16.6045 43.5583C16.6045 44.8718 17.2612 47.5925 18.8571 48.1541C20.453 48.7157 23.2126 44.5333 23.2126 44.5333Z" fill="black"/>
<path d="M48.2577 47.0172C49.1751 46.6687 49.6154 45.5877 49.2413 44.6027C48.8671 43.6177 47.8201 43.1016 46.9027 43.4501C45.9854 43.7986 45.545 44.8796 45.9192 45.8646C46.2934 46.8496 47.3404 47.3657 48.2577 47.0172Z" fill="#2F80ED" stroke="#263238" stroke-linecap="round" stroke-linejoin="round"/>
<path d="M23.108 65.6479L25.0768 71.5541C25.1302 71.7141 25.2326 71.8533 25.3695 71.9518C25.5064 72.0504 25.6709 72.1034 25.8396 72.1032H28.9081C29.0651 72.1034 29.2187 72.0576 29.3499 71.9714C29.481 71.8851 29.584 71.7623 29.646 71.618L31.0188 68.4325" fill="#2F80ED"/>
<path opacity="0.3" d="M24.0956 65.6479L25.7242 71.5541C25.755 71.7024 25.8337 71.8364 25.9481 71.9356C26.0626 72.0348 26.2064 72.0937 26.3576 72.1032H28.9019C29.0417 72.096 29.1757 72.0454 29.2853 71.9585C29.3949 71.8715 29.4747 71.7525 29.5135 71.618L30.6523 68.4325" fill="black"/>
<path d="M23.108 65.6479L25.0768 71.5541C25.1302 71.7141 25.2326 71.8533 25.3695 71.9518C25.5064 72.0504 25.6709 72.1034 25.8396 72.1032H28.9081C29.0651 72.1034 29.2187 72.0576 29.3499 71.9714C29.481 71.8851 29.584 71.7623 29.646 71.618L31.0188 68.4325" stroke="#263238" stroke-linecap="round" stroke-linejoin="round"/>
<path d="M37.9156 65.6479L35.9484 71.5541C35.895 71.7141 35.7926 71.8533 35.6557 71.9518C35.5188 72.0504 35.3543 72.1034 35.1856 72.1032H32.1202C31.9632 72.1034 31.8096 72.0576 31.6785 71.9714C31.5473 71.8851 31.4443 71.7623 31.3823 71.618L30.0095 68.4325" fill="#263238"/>
<path d="M37.9156 65.6479L35.9484 71.5541C35.895 71.7141 35.7926 71.8533 35.6557 71.9518C35.5188 72.0504 35.3543 72.1034 35.1856 72.1032H32.1202C31.9632 72.1034 31.8096 72.0576 31.6785 71.9714C31.5473 71.8851 31.4443 71.7623 31.3823 71.618L30.0095 68.4325" stroke="#263238" stroke-linecap="round" stroke-linejoin="round"/>
<path d="M44.4348 65.6479L42.4661 71.5541C42.4127 71.7141 42.3103 71.8533 42.1733 71.9518C42.0364 72.0504 41.8719 72.1034 41.7032 72.1032H38.6347C38.4777 72.1034 38.3241 72.0576 38.193 71.9714C38.0618 71.8851 37.9588 71.7623 37.8968 71.618L36.524 68.4325" fill="#2F80ED"/>
<path opacity="0.3" d="M43.0401 65.6479L41.6939 71.5541C41.619 71.8817 41.4099 72.1032 41.1728 72.1032H39.0746C38.8562 72.1032 38.6581 71.9129 38.5708 71.618L37.2666 68.498" fill="black"/>
<path d="M44.4348 65.6479L42.4661 71.5541C42.4127 71.7141 42.3103 71.8533 42.1733 71.9518C42.0364 72.0504 41.8719 72.1034 41.7032 72.1032H38.6347C38.4777 72.1034 38.3241 72.0576 38.193 71.9714C38.0618 71.8851 37.9588 71.7623 37.8968 71.618L36.524 68.4325" stroke="#263238" stroke-linecap="round" stroke-linejoin="round"/>
<path d="M33.9142 69.5339C43.2337 69.5339 50.7887 62.6822 50.7887 54.2303C50.7887 45.7783 43.2337 38.9267 33.9142 38.9267C24.5947 38.9267 17.0397 45.7783 17.0397 54.2303C17.0397 62.6822 24.5947 69.5339 33.9142 69.5339Z" fill="#2F80ED"/>
<path opacity="0.3" d="M45.5362 43.7736C46.5257 45.736 47.0413 47.9032 47.0416 50.101C47.0416 58.553 39.4865 65.4046 30.167 65.4046C26.699 65.4221 23.2996 64.4373 20.3781 62.5685C23.3202 66.5168 28.3013 69.1205 33.95 69.1205C42.998 69.1205 50.33 62.4733 50.33 54.2724C50.3207 50.168 48.4892 46.4599 45.5362 43.7736Z" fill="black"/>
<path d="M33.9142 69.5339C43.2337 69.5339 50.7887 62.6822 50.7887 54.2303C50.7887 45.7783 43.2337 38.9267 33.9142 38.9267C24.5947 38.9267 17.0397 45.7783 17.0397 54.2303C17.0397 62.6822 24.5947 69.5339 33.9142 69.5339Z" stroke="#263238" stroke-linecap="round" stroke-linejoin="round"/>
<path d="M49.3691 55.6031C49.0009 58.6856 47.5798 61.4827 45.4395 63.6917" stroke="#2F80ED" stroke-width="2" stroke-linecap="round" stroke-linejoin="round"/>
<path d="M49.0898 50.856C49.3388 51.8884 49.4645 52.9467 49.4642 54.0088" stroke="#2F80ED" stroke-width="2" stroke-linecap="round" stroke-linejoin="round"/>
<path d="M29.7303 39.8814C31.1207 39.5564 32.544 39.393 33.9719 39.3947C34.8861 39.3945 35.7991 39.4612 36.7035 39.5944" stroke="#263238" stroke-width="4" stroke-linecap="round" stroke-linejoin="round"/>
<path d="M37.2245 50.5643C37.2245 50.5643 38.8625 49.452 38.9217 47.4053C38.981 45.3586 36.2885 42.3758 34.1247 41.1466C31.961 39.9173 30.3807 40.1528 30.323 41.0296C30.2653 41.9063 29.504 42.9016 29.2123 44.5973C28.9206 46.293 28.802 48.8093 31.0843 49.6283" fill="#2F80ED"/>
<path d="M37.2245 50.5643C37.2245 50.5643 38.8625 49.452 38.9217 47.4053C38.981 45.3586 36.2885 42.3758 34.1247 41.1466C31.961 39.9173 30.3807 40.1528 30.323 41.0296C30.2653 41.9063 29.504 42.9016 29.2123 44.5973C28.9206 46.293 28.802 48.8093 31.0843 49.6283" stroke="#263238" stroke-linecap="round" stroke-linejoin="round"/>
<path opacity="0.3" d="M33.7004 49.9075L34.0358 49.9575C35.4741 50.1649 35.9796 49.2258 35.9375 47.8156C35.8797 45.8266 33.248 41.6146 32.1357 41.0296C31.0235 40.4446 30.674 41.2636 30.674 41.2636C30.674 41.2636 30.83 41.3681 30.2825 43.1855C30.0297 44.0248 29.0891 46.9513 30.0204 48.2493C30.8441 49.3959 32.3744 49.7094 33.7004 49.9075Z" fill="black"/>
<path opacity="0.3" d="M38.3602 47.892H38.3384C38.3179 47.8893 38.2983 47.8826 38.2804 47.8723C38.2626 47.862 38.247 47.8482 38.2346 47.8318C38.2221 47.8155 38.213 47.7968 38.2078 47.7768C38.2026 47.7569 38.2014 47.7361 38.2042 47.7157C38.2211 47.5958 38.231 47.4749 38.2338 47.3538C38.265 46.2618 37.3743 44.694 35.9095 43.2479C35.8948 43.2335 35.8831 43.2163 35.8751 43.1973C35.8671 43.1784 35.8629 43.158 35.8628 43.1375C35.8627 43.1169 35.8666 43.0965 35.8743 43.0774C35.882 43.0584 35.8935 43.041 35.9079 43.0264C35.9223 43.0117 35.9395 43.0001 35.9585 42.9921C35.9774 42.9841 35.9978 42.9799 36.0183 42.9797C36.0389 42.9796 36.0593 42.9835 36.0784 42.9912C36.0974 42.9989 36.1148 43.0104 36.1294 43.0248C37.6769 44.5536 38.5802 46.1745 38.5458 47.3616C38.5425 47.4942 38.5321 47.6264 38.5146 47.7579C38.5094 47.7951 38.4909 47.8292 38.4625 47.8538C38.4341 47.8784 38.3978 47.892 38.3602 47.892Z" fill="black"/>
<path opacity="0.3" d="M37.5209 49.7734C37.4914 49.7735 37.4624 49.7652 37.4374 49.7495C37.4124 49.7338 37.3924 49.7113 37.3797 49.6847C37.3669 49.6581 37.362 49.6284 37.3655 49.5991C37.3689 49.5697 37.3806 49.542 37.3992 49.5191C37.6563 49.2041 37.8617 48.8502 38.0076 48.4708C38.0223 48.4321 38.0518 48.4008 38.0895 48.3838C38.1273 48.3669 38.1702 48.3656 38.2089 48.3803C38.2476 48.395 38.2788 48.4244 38.2958 48.4622C38.3128 48.4999 38.314 48.5428 38.2993 48.5815C38.1417 48.9922 37.9195 49.3751 37.641 49.7156C37.6265 49.7335 37.6082 49.748 37.5874 49.758C37.5667 49.768 37.544 49.7732 37.5209 49.7734V49.7734Z" fill="black"/>
<path opacity="0.3" d="M26.1606 57.1913C26.6219 55.3422 25.0138 53.3487 22.5687 52.7386C20.1236 52.1285 17.7674 53.1329 17.306 54.982C16.8447 56.8311 18.4528 58.8246 20.8979 59.4347C23.343 60.0448 25.6992 59.0404 26.1606 57.1913Z" fill="black"/>
<path d="M25.9411 56.8555C26.4024 55.0064 24.7943 53.0129 22.3492 52.4028C19.9041 51.7927 17.5479 52.7971 17.0865 54.6462C16.6252 56.4953 18.2333 58.4888 20.6784 59.0989C23.1235 59.709 25.4797 58.7046 25.9411 56.8555Z" fill="#2F80ED" stroke="#263238" stroke-linecap="round" stroke-linejoin="round"/>
<path d="M20.1363 55.1928C20.1644 55.6109 20.0037 55.9635 19.779 55.9728C19.5544 55.9822 19.3469 55.6608 19.311 55.2427C19.2752 54.8246 19.4436 54.4705 19.6698 54.4627C19.896 54.4549 20.1082 54.7732 20.1363 55.1928Z" stroke="#263238" stroke-linecap="round" stroke-linejoin="round"/>
<path d="M23.2283 55.9681C23.2563 56.3878 23.0957 56.7388 22.871 56.7481C22.6464 56.7575 22.4389 56.4361 22.403 56.0165C22.3671 55.5968 22.5356 55.2458 22.7618 55.2365C22.988 55.2271 23.1955 55.5485 23.2283 55.9681Z" stroke="#263238" stroke-linecap="round" stroke-linejoin="round"/>
<path d="M28.331 57.0523C28.2981 57.3526 28.2279 57.6477 28.122 57.9306C27.2265 60.3502 23.9848 61.3969 20.7822 60.3548" stroke="#263238" stroke-width="3" stroke-linecap="round" stroke-linejoin="round"/>
<path d="M27.8083 56.823H28.8021" stroke="#263238" stroke-width="3" stroke-linecap="round" stroke-linejoin="round"/>
<path d="M21.4779 50.3459C21.3687 50.7999 21.0894 51.1259 20.8539 51.0666C20.6183 51.0073 20.5154 50.5986 20.6261 50.14C20.7369 49.6813 21.0146 49.36 21.2501 49.4177C21.4857 49.4754 21.5886 49.8904 21.4779 50.3459Z" fill="#263238" stroke="#263238" stroke-linecap="round" stroke-linejoin="round"/>
<path d="M24.3549 50.9731C24.4647 50.5174 24.3629 50.1021 24.1275 50.0453C23.8922 49.9886 23.6124 50.312 23.5025 50.7676C23.3927 51.2233 23.4945 51.6386 23.7299 51.6954C23.9652 51.7521 24.2451 51.4287 24.3549 50.9731Z" fill="#263238" stroke="#263238" stroke-linecap="round" stroke-linejoin="round"/>
<path d="M28.6507 67.548L30.3667 71.6196C30.4283 71.7652 30.5314 71.8895 30.6632 71.9769C30.795 72.0643 30.9496 72.1109 31.1077 72.111H34.2277C34.3844 72.1108 34.5376 72.0649 34.6686 71.979C34.7997 71.8932 34.9028 71.771 34.9656 71.6274L36.8376 67.3015H36.7565" fill="#2F80ED"/>
<path opacity="0.3" d="M32.2762 67.0285C31.2872 67.0285 30.1359 67.158 29.2046 66.9427L30.8083 71.6118C30.8464 71.7474 30.9261 71.8677 31.036 71.9558C31.1459 72.0439 31.2807 72.0955 31.4213 72.1032H33.9922C34.1312 72.0955 34.2644 72.0448 34.3734 71.9582C34.4824 71.8716 34.5618 71.7533 34.6006 71.6196L36.1528 66.8569L35.5288 66.9427C33.5492 67.158 33.6007 67.0285 32.2762 67.0285Z" fill="black"/>
<path d="M28.6507 67.548L30.3667 71.6196C30.4283 71.7652 30.5314 71.8895 30.6632 71.9769C30.795 72.0643 30.9496 72.1109 31.1077 72.111H34.2277C34.3844 72.1108 34.5376 72.0649 34.6686 71.979C34.7997 71.8932 34.9028 71.771 34.9656 71.6274L36.8376 67.3015H36.7565" stroke="#263238" stroke-linecap="round" stroke-linejoin="round"/>
<path d="M59.7322 4.12464L51.1038 16.5563C51.1038 16.5563 50.3659 18.316 49.458 19.6217C48.5501 20.9274 46.0041 22.2331 46.0041 22.2331C46.0041 22.2331 45.778 24.673 45.0401 25.5247C44.3022 26.3765 42.7125 25.8664 42.7125 25.8664C42.7125 25.8664 42.0308 26.6042 41.2929 26.9443C40.5551 27.2844 38.2853 26.0364 38.2853 26.0364C38.2853 26.0364 40.3273 28.25 40.6112 28.9879C40.8951 29.7258 41.4068 30.3498 40.4989 31.0315C39.591 31.7132 38.5676 30.7476 38.5676 30.7476C38.5676 30.7476 39.0232 32.2234 37.7174 32.5073C36.4117 32.7912 34.989 29.952 34.4211 28.9879C33.8533 28.0238 32.2075 24.389 31.9251 24.219C31.6428 24.049 31.245 23.141 31.8128 22.2893C32.3807 21.4375 36.4086 15.9884 36.8625 15.6C37.3165 15.2116 46.0041 13.1508 46.0041 13.1508L49.2973 4.06848" fill="white"/>
<path opacity="0.2" d="M50.2161 16.692C50.2161 16.692 49.2801 19.5 48.2661 20.046C47.2521 20.592 41.4801 22.074 39.2181 21.762C36.9561 21.45 35.7081 20.592 35.7081 20.592C35.7081 20.592 34.4601 22.23 33.9141 22.776C33.5339 23.1291 33.0815 23.3952 32.5881 23.556C32.5881 23.556 35.3025 30.3748 37.2541 32.4854C37.4057 32.5323 37.5668 32.5398 37.7221 32.5073C39.0278 32.2234 38.5723 30.7476 38.5723 30.7476C38.5723 30.7476 39.5941 31.7117 40.5036 31.0315C41.4131 30.3514 40.8998 29.7258 40.6159 28.9879C40.332 28.25 38.2821 26.0364 38.2821 26.0364C38.2821 26.0364 40.5519 27.2844 41.2898 26.9443C42.0277 26.6042 42.7094 25.8648 42.7094 25.8648C42.7094 25.8648 44.2991 26.3765 45.0369 25.5247C45.7748 24.673 46.001 22.2331 46.001 22.2331C46.001 22.2331 48.5547 20.9274 49.4642 19.6217C50.3737 18.316 51.11 16.5563 51.11 16.5563L54.6653 11.4348L50.2161 16.692Z" fill="black"/>
<path d="M59.7322 4.12464L51.1038 16.5563C51.1038 16.5563 50.3659 18.316 49.458 19.6217C48.5501 20.9274 46.0041 22.2331 46.0041 22.2331C46.0041 22.2331 45.778 24.673 45.0401 25.5247C44.3022 26.3765 42.7125 25.8664 42.7125 25.8664C42.7125 25.8664 42.0308 26.6042 41.2929 26.9443C40.5551 27.2844 38.2853 26.0364 38.2853 26.0364C38.2853 26.0364 40.3273 28.25 40.6112 28.9879C40.8951 29.7258 41.4068 30.3498 40.4989 31.0315C39.591 31.7132 38.5676 30.7476 38.5676 30.7476C38.5676 30.7476 39.0232 32.2234 37.7174 32.5073C36.4117 32.7912 34.989 29.952 34.4211 28.9879C33.8533 28.0238 32.2075 24.389 31.9251 24.219C31.6428 24.049 31.245 23.141 31.8128 22.2893C32.3807 21.4375 36.4086 15.9884 36.8625 15.6C37.3165 15.2116 46.0041 13.1508 46.0041 13.1508L49.2973 4.06848" stroke="#263238" stroke-linecap="round" stroke-linejoin="round"/>
<path d="M30.2217 37.2746L30.4479 38.1264L33.9672 37.2746L37.2604 28.6463L35.1029 27.9084L30.2217 37.2746Z" fill="white" stroke="#263238" stroke-linecap="round" stroke-linejoin="round"/>
<path d="M31.2996 25.8086L36.1808 27.626L33.7971 38.4103L28.0641 36.6506L31.2996 25.8086Z" fill="white" stroke="#263238" stroke-linecap="round" stroke-linejoin="round"/>
<path d="M28.256 36.0064L33.3432 37.5024L35.5568 27.9084L31.0999 26.4763L28.256 36.0064Z" fill="#2F80ED" stroke="#263238" stroke-linecap="round" stroke-linejoin="round"/>
<path d="M31.0797 28.8491C30.8583 28.7905 30.6269 28.7798 30.4011 28.8179L29.072 33.2717C29.2643 33.4591 29.501 33.5949 29.7599 33.6664C30.802 33.9534 31.9439 33.1063 32.309 31.7756C32.674 30.445 32.1202 29.1346 31.0797 28.8491Z" fill="white" stroke="#263238" stroke-linecap="round" stroke-linejoin="round"/>
<path d="M30.8909 29.587C30.8842 29.5839 30.8787 29.5788 30.8753 29.5723C30.8719 29.5658 30.8708 29.5583 30.8722 29.5511L30.9315 29.3202C30.9351 29.3105 30.9364 29.3001 30.9354 29.2897C30.9344 29.2794 30.9311 29.2694 30.9257 29.2606C30.9203 29.2517 30.913 29.2442 30.9042 29.2386C30.8955 29.233 30.8856 29.2294 30.8753 29.2282L30.6273 29.1689C30.6175 29.1649 30.607 29.1633 30.5966 29.1642C30.5861 29.165 30.576 29.1683 30.5671 29.1738C30.5581 29.1792 30.5506 29.1867 30.5451 29.1956C30.5395 29.2045 30.5362 29.2146 30.5352 29.225L30.4869 29.4637C30.485 29.4709 30.4808 29.4771 30.4748 29.4814C30.4688 29.4857 30.4614 29.4877 30.4541 29.4871C30.3696 29.4785 30.2844 29.4785 30.1998 29.4871L29.7459 31.0112C30.1 31.3794 30.6522 31.5635 30.5789 31.8724C30.5368 32.0471 30.3777 32.1844 30.0984 32.122C30.04 32.1142 29.984 32.0939 29.9342 32.0625C29.8843 32.0311 29.8418 31.9893 29.8095 31.94C29.7773 31.8907 29.756 31.8351 29.7472 31.7768C29.7383 31.7186 29.7421 31.6591 29.7583 31.6025L29.7724 31.5401C29.7802 31.5058 29.7599 31.4777 29.7115 31.4668L29.6164 31.4434L29.3465 32.345C29.4549 32.4436 29.5816 32.5199 29.7193 32.5697C29.7263 32.5728 29.732 32.5782 29.7355 32.585C29.7389 32.5919 29.7398 32.5997 29.7381 32.6071L29.6819 32.8052C29.6776 32.8149 29.6757 32.8255 29.6764 32.8361C29.6771 32.8467 29.6803 32.8569 29.6858 32.866C29.6914 32.875 29.699 32.8826 29.7081 32.8881C29.7172 32.8935 29.7275 32.8967 29.7381 32.8973L29.9955 32.9597C30.0045 32.9645 30.0145 32.9672 30.0248 32.9675C30.035 32.9678 30.0452 32.9658 30.0545 32.9616C30.0639 32.9574 30.0721 32.9511 30.0786 32.9432C30.0852 32.9353 30.0898 32.926 30.0922 32.916L30.1343 32.7194C30.1366 32.7122 30.1412 32.7058 30.1474 32.7013C30.1535 32.6969 30.161 32.6945 30.1686 32.6945C30.7177 32.7522 31.0906 32.4823 31.206 32.0018C31.2965 31.6181 31.167 31.292 30.7661 30.9847C30.3995 30.707 30.0126 30.5698 30.0797 30.2858C30.1265 30.0893 30.3059 29.9988 30.5477 30.0565C30.6075 30.0662 30.6646 30.0886 30.7149 30.1224C30.7652 30.1562 30.8077 30.2005 30.8392 30.2522C30.8708 30.304 30.8908 30.3619 30.8978 30.4221C30.9049 30.4823 30.8988 30.5433 30.88 30.601L30.8691 30.6446C30.8691 30.6712 30.8847 30.6946 30.933 30.707L31.3901 30.8162C31.3998 30.8199 31.4103 30.8212 31.4206 30.8202C31.4309 30.8192 31.4409 30.8159 31.4497 30.8105C31.4586 30.8051 31.4661 30.7977 31.4717 30.789C31.4773 30.7803 31.4809 30.7704 31.4821 30.7601L31.5165 30.615C31.621 30.1579 31.401 29.7695 30.8909 29.587Z" fill="#263238"/>
<path d="M35.3291 20.1318C35.3291 20.1318 36.0108 21.1536 36.1247 22.0631C36.2214 22.8383 36.0401 23.6226 35.613 24.2767C35.2729 24.7868 34.9329 25.2408 34.6489 26.0364C34.365 26.832 34.3089 27.9661 33.9111 28.5324C33.5133 29.0987 33.2871 29.6665 33.8533 30.1782C34.4196 30.6899 35.8969 30.6322 36.6925 29.1564C37.4881 27.6806 37.9983 26.091 38.5084 25.5232C39.0185 24.9553 40.6659 23.6512 40.6659 23.6512C40.6659 23.6512 45.1493 23.0272 46.0011 22.2331C46.8528 21.4391 47.5907 19.2816 47.5907 19.2816" fill="white"/>
<path opacity="0.2" d="M47.2522 20.046C47.2522 20.046 44.8342 21.606 42.9622 22.074C41.0902 22.542 39.9202 22.542 39.2182 23.478C38.5162 24.414 37.8142 27.378 36.8782 27.924C35.9422 28.47 35.7862 26.52 34.4602 26.91L34.4165 26.9256C34.287 27.534 34.1731 28.158 33.9111 28.534C33.5133 29.1018 33.2871 29.6681 33.8533 30.1798C34.4196 30.6914 35.8969 30.6337 36.6925 29.158C37.4881 27.6822 37.9983 26.0926 38.5084 25.5247C39.0185 24.9569 40.6659 23.6527 40.6659 23.6527C40.6659 23.6527 45.1493 23.0287 46.0011 22.2347C46.5159 21.7542 46.9886 20.7776 47.2818 20.0788L47.2522 20.046Z" fill="black"/>
<path d="M35.3291 20.1318C35.3291 20.1318 36.0108 21.1536 36.1247 22.0631C36.2214 22.8383 36.0401 23.6226 35.613 24.2767C35.2729 24.7868 34.9329 25.2408 34.6489 26.0364C34.365 26.832 34.3089 27.9661 33.9111 28.5324C33.5133 29.0987 33.2871 29.6665 33.8533 30.1782C34.4196 30.6899 35.8969 30.6322 36.6925 29.1564C37.4881 27.6806 37.9983 26.091 38.5084 25.5232C39.0185 24.9553 40.6659 23.6512 40.6659 23.6512C40.6659 23.6512 45.1493 23.0272 46.0011 22.2331C46.8528 21.4391 47.5907 19.2816 47.5907 19.2816" stroke="#263238" stroke-linecap="round" stroke-linejoin="round"/>
<path d="M33.5693 22.971C33.5693 22.971 35.0467 23.765 36.1246 22.8571" stroke="#263238" stroke-linecap="round" stroke-linejoin="round"/>
<path d="M38.5645 30.7476L37.2604 28.25" stroke="#263238" stroke-linecap="round" stroke-linejoin="round"/>
<path d="M42.7094 25.8664C42.7094 25.8664 43.7312 25.0146 43.6735 23.141" stroke="#263238" stroke-linecap="round" stroke-linejoin="round"/>
<path d="M11.6842 72.1032H73.4602" stroke="#263238" stroke-linecap="round" stroke-linejoin="round"/>
<path d="M6.22418 72.1032H9.03218" stroke="#263238" stroke-linecap="round" stroke-linejoin="round"/>
</svg>
